<?xml version="1.0" ?><svg data-name="Layer 1" id="Layer_1" viewBox="0 0 500 500" xmlns="http://www.w3.org/2000/svg"><defs><style>.cls-1{fill:#962fbf;}.cls-2{fill:#ab45ed;}.cls-3{fill:#fff;}</style></defs><title/><circle class="cls-1" cx="250" cy="250" r="250"/><circle class="cls-2" cx="250" cy="250" r="203.65"/><path class="cls-3" d="M200.2,376.56a62.3,62.3,0,1,1,62.3-62.3A62.37,62.37,0,0,1,200.2,376.56Zm0-99.6a37.3,37.3,0,1,0,37.3,37.3A37.34,37.34,0,0,0,200.2,277Z"/><path class="cls-3" d="M349.6,198.24a12.5,12.5,0,0,1-12.5-12.5,37.3,37.3,0,0,0-74.6,0,12.5,12.5,0,1,1-25,0,62.3,62.3,0,1,1,124.6,0A12.5,12.5,0,0,1,349.6,198.24Z"/><path class="cls-3" d="M250,326.77a12.5,12.5,0,0,1-12.5-12.5V185.74a12.5,12.5,0,0,1,25,0V314.27A12.5,12.5,0,0,1,250,326.77Z"/><path class="cls-3" d="M199.26,294.24,215.05,310a4.27,4.27,0,0,1,0,6l-15.79,15.79a4.27,4.27,0,0,1-7.28-3V297.26A4.27,4.27,0,0,1,199.26,294.24Z"/></svg>